<?xml version="1.0" encoding="UTF-8"?>
<svg width="1024px" height="1024px" viewBox="0 0 1024 1024" version="1.1" xmlns="http://www.w3.org/2000/svg" xmlns:xlink="http://www.w3.org/1999/xlink">
    <title>icon-1024-plain</title>
    <g id="icon-1024-plain" stroke="none" stroke-width="1" fill="none" fill-rule="evenodd">
        <g id="dorsal-plain" transform="translate(288.000000, 128.000000)" fill="#000000" fill-rule="nonzero">
            <path d="M357.505443,7.87026901 C367.846436,4.19797746 378.435252,0.533195706 389.489676,0 C391.735106,0.345450739 394.416104,2.10274363 394.295947,4.67860457 C393.575006,9.51491492 390.871479,13.6978728 388.783755,18.0235168 C382.948641,28.3569998 376.805626,38.5252672 371.511218,49.1516323 C360.081304,69.7960688 351.65531,92.393053 348.809096,115.861174 C347.735195,126.209676 346.188177,136.670826 347.269588,147.124466 C348.335979,157.946086 349.837939,168.782725 352.624074,179.311463 C355.650523,189.299495 359.765893,198.957096 364.692321,208.14909 C366.479653,210.965264 367.403358,214.232027 369.333376,216.965593 C373.035707,222.612962 376.355038,228.500644 380.342741,233.960268 C392.185694,251.180236 406.093841,266.875715 417.598852,284.343507 C425.446592,297.102655 432.61094,310.387489 437.589936,324.558479 C440.774091,333.397512 442.719129,342.612035 444.408834,351.826558 C445.813166,360.184964 447.420263,368.573409 447.577969,377.074501 C447.54042,381.114773 448.64436,385.072437 448.321439,389.127728 C448.65187,394.429646 447.412753,399.618917 447.427773,404.913325 C444.979578,424.446311 441.953129,444.121984 434.984036,462.626127 C431.003843,474.191217 425.979788,485.373308 420.820556,496.450261 C418.732832,500.100023 417.110715,503.997608 414.835246,507.534724 C412.402072,512.288426 409.908818,517.064658 406.49937,521.210067 C404.434175,523.643242 403.112451,526.639651 400.776903,528.847532 C396.256004,534.089372 392.463556,540.014603 387.184168,544.573051 C384.458111,547.19397 381.814662,550.040184 378.337625,551.67732 C376.535273,552.646084 374.184706,552.938966 372.434923,551.69985 C372.434923,549.792361 372.142041,547.854833 372.652707,545.999912 C376.204842,535.403586 380.883447,525.19777 384.007523,514.451248 C386.282992,506.17545 389.196794,498.057358 390.82642,489.616344 C393.034301,481.54331 394.716496,473.312571 395.076966,464.939145 C395.076966,463.707538 395.249691,462.498461 395.520044,461.311913 C396.113318,447.035785 396.639004,432.616972 394.378555,418.453492 C392.501105,405.731893 389.069127,393.213058 383.827288,381.445204 C380.785819,373.3947 376.062156,366.155254 371.368532,358.998416 C364.399439,348.927776 356.228778,339.675704 346.834019,331.805435 C335.23138,322.027677 322.539821,313.106036 308.060929,308.179608 C299.657464,305.370943 290.623176,303.110494 281.761614,304.927865 C273.988972,306.061845 266.283919,310.447567 262.949568,317.82219 C261.657883,321.276697 259.878061,324.678636 259.750394,328.433535 C258.751591,333.592767 259.412453,338.887175 258.931826,344.106485 C258.984395,387.407984 258.76661,430.716993 259.082022,474.018492 C259.067002,493.303655 259.299806,512.581308 258.961865,531.858961 C258.180846,543.10864 259.14961,620.519645 257.985591,636.996143 C257.595082,646.210666 255.42475,655.237444 252.916477,664.076477 C247.899932,679.133623 241.764426,694.235828 231.378375,706.439251 C227.097789,712.341953 221.87097,717.463636 216.726757,722.600338 C211.927996,727.834668 206.303157,732.2279 200.715867,736.576073 C195.556635,741.17958 189.481208,744.634087 183.375742,747.825752 C168.018203,756.09404 151.166215,761.32837 134.021345,764.332289 C124.333704,765.954406 114.631045,767.899443 104.770679,767.952012 C93.0779224,768.304973 81.4227148,766.682856 70.0603894,764.009368 C57.4364179,761.058017 45.8788377,754.637139 35.5603743,746.924576 C31.2647695,743.169676 26.6913021,739.610032 23.2292849,735.036564 C18.4605628,729.847294 15.4791727,723.388867 11.438901,717.68142 C5.59627764,709.10523 2.56231898,698.997041 0.962731862,688.836283 C-0.426580892,681.649406 0.0540462226,674.289803 0.196732397,667.027828 C1.00779065,660.141342 1.72873133,653.209798 3.49353401,646.481019 C6.62512006,634.270086 12.6479786,623.042937 19.4894052,612.544238 C23.2067555,607.542712 26.8414981,602.451069 31.3999459,598.162974 C40.8848216,588.59549 51.2708732,579.681359 63.3691588,573.575893 C81.9934595,563.6179 102.217347,556.183199 123.267313,553.629868 C130.521779,552.075339 137.979009,552.187986 145.346121,551.617242 C153.95986,551.985222 164.02299,553.261888 171.052162,547.133892 C177.488059,542.35766 180.664704,534.622567 183.037801,527.240435 C185.343309,518.979657 186.552386,510.395957 186.40219,501.819767 C186.229465,498.763279 187.078072,495.789398 186.987955,492.74793 C187.040523,470.473867 187.033014,448.207314 187.1757,425.940761 C186.920367,413.436946 187.363445,400.903092 186.484798,388.421807 C186.019191,352.12695 186.484798,315.824583 186.372151,279.522216 C186.312073,266.995872 186.357132,254.469528 186.4097,241.943184 C187.423523,220.615356 189.826659,199.1899 195.7594,178.598032 C198.245143,171.403645 200.167651,164.006493 203.344296,157.074949 C207.144254,147.507465 211.612585,138.210335 216.554032,129.183557 C224.529438,116.37935 232.467295,103.439967 242.38774,92.0100533 C254.170614,77.3208871 267.838447,64.2388178 282.257261,52.1630616 C305.162147,34.1095056 329.891914,17.7306347 357.505443,7.87026901 Z" id="Path"></path>
        </g>
    </g>
</svg>